<?xml version="1.0" encoding="UTF-8"?><svg id="Graphic_Elements" xmlns="http://www.w3.org/2000/svg" viewBox="0 0 659.15 866.52"><defs><style>.cls-1{stroke-width:1.1px;}.cls-1,.cls-2,.cls-3,.cls-4,.cls-5,.cls-6{fill:none;stroke:#000;stroke-miterlimit:10;}.cls-2{stroke-width:.8px;}.cls-3{stroke-width:1.7px;}.cls-4{stroke-width:1.4px;}.cls-5{stroke-width:2px;}.cls-6{stroke-width:.5px;}</style></defs><path class="cls-6" d="m.1.92s89.49,36.81,88.14,95.66-24.99,133.02-53.94,215.23C5.36,394.01-3.85,425.4,10.62,488.17c14.47,62.77,144.7,134.52,231.53,23.91,86.82-110.6,126.39-117.4,225.27-74.15,134.28,58.72,93.96,242.57-43.29,277.93-137.25,35.36-192.31,71.24-175.96,150.45"/><path class="cls-2" d="m22.3.92s89.49,36.81,88.14,95.66c-1.35,58.85-30.36,116.01-59.3,198.21-28.94,82.2-38.15,113.59-23.68,176.37,14.47,62.77,134.99,137.82,226.78-3.91,76.32-117.84,159.78-92.68,247.31-37.2,113.33,71.83,82.03,250.45-55.22,285.82-137.25,35.36-192.31,71.24-175.96,150.45"/><path class="cls-1" d="m44.51.92s89.49,36.81,88.14,95.66-35.72,98.99-64.66,181.2c-28.94,82.2-38.15,113.59-23.68,176.37,14.47,62.77,126.7,142.54,222.04-31.74,67.59-123.56,193.15-68.98,269.34-.25,92.53,83.47,70.1,258.34-67.15,293.71-137.25,35.36-192.31,71.24-175.96,150.45"/><path class="cls-4" d="m66.72.92s89.49,36.81,88.14,95.66c-1.35,58.85-41.08,81.98-70.02,164.19-28.94,82.2-38.15,113.59-23.68,176.37,14.47,62.77,120.12,148.23,217.29-59.56,60.12-128.56,227.13-46.32,291.38,36.7,72.55,93.75,58.17,266.23-79.08,301.59-137.25,35.36-192.31,71.24-175.96,150.45"/><path class="cls-3" d="m88.93.92s89.49,36.81,88.14,95.66c-1.35,58.85-46.44,64.97-75.39,147.17-28.94,82.2-38.15,113.59-23.68,176.37,14.47,62.77,115.36,154.56,212.55-87.39,53.54-133.29,262.32-24.34,313.41,73.65,53.87,103.33,46.24,274.12-91.01,309.48-137.25,35.36-192.31,71.24-175.96,150.45"/><path class="cls-5" d="m111.14.92s89.49,36.81,88.14,95.66-51.81,47.95-80.75,130.16-38.15,113.59-23.68,176.37c14.47,62.77,112.39,161.29,207.81-115.21,47.61-137.98,298.94-2.41,335.45,110.6,36.51,113.01,34.31,282-102.94,317.37-137.25,35.36-192.31,71.24-175.96,150.45"/></svg>