<?xml version="1.0" encoding="utf-8"?>
<!-- Generator: Adobe Illustrator 27.7.0, SVG Export Plug-In . SVG Version: 6.00 Build 0)  -->
<svg version="1.1" id="Layer_1" xmlns="http://www.w3.org/2000/svg" xmlns:xlink="http://www.w3.org/1999/xlink" x="0px" y="0px"
	 viewBox="0 0 1437 805" style="enable-background:new 0 0 1437 805;" xml:space="preserve">
<style type="text/css">
	.st0{fill:none;stroke:#FF5757;stroke-linejoin:round;}
	.st1{fill:#FFBE1E;}
</style>
<path class="st0" d="M1,590.5c0,0,136.5,153.5,166.7,169.2c30.2,15.6,34.6,47.3,146.4,28.6c111.8-18.7,147.9,29.5,178.4-18.7
	s94.8-137,228.1-160.7c133.3-23.7,45.6-86.6,213.9-93.7s78.4,115.2,193.3,104.4c114.9-10.7,148.6-55.3,148.6-55.3"/>
<path class="st0" d="M1,564.6c0,0,136.5,154.6,166.7,170.3c30.2,15.7,34.6,47.6,146.4,28.8s147.9,29.7,178.4-18.9
	c30.4-48.5,94.8-138,228.1-161.8c133.3-23.8,45.6-87.2,213.9-94.4c168.2-7.2,78.4,115.9,193.3,105.2
	c114.9-10.8,148.6-55.7,148.6-55.7"/>
<path class="st0" d="M1,545.2c0,0,136.5,153.5,166.7,169.2c30.2,15.6,34.6,47.3,146.4,28.6c111.8-18.7,147.9,29.5,178.4-18.7
	c30.4-48.2,94.8-137,228.1-160.7c133.3-23.7,45.6-86.6,213.9-93.7c168.2-7.1,78.4,115.2,193.3,104.4
	c114.9-10.7,148.6-55.3,148.6-55.3"/>
<circle class="st1" cx="1085.8" cy="658.2" r="49.1"/>
<circle class="st1" cx="455.7" cy="699.7" r="49.1"/>
<circle class="st1" cx="156.7" cy="706.3" r="23.6"/>
<path class="st0" d="M1446,135.7c0,0-129.2,145.3-157.8,160.1c-28.6,14.8-32.8,44.8-138.6,27c-105.8-17.7-140,27.9-168.8-17.7
	c-28.8-45.6-89.7-129.7-215.9-152.1C638.9,130.6,721.9,71,562.7,64.3c-159.2-6.8-74.2,109-182.9,98.8
	C271,153,239.2,110.7,239.2,110.7"/>
<path class="st0" d="M1446,111.2c0,0-129.2,146.3-157.8,161.2c-28.6,14.9-32.8,45.1-138.6,27.2c-105.8-17.9-140,28.1-168.8-17.9
	c-28.8-45.9-89.7-130.5-215.9-153.1C638.9,106,721.9,46.1,562.7,39.3c-159.2-6.8-74.2,109.7-182.9,99.5
	C271,128.6,239.2,86.1,239.2,86.1"/>
<path class="st0" d="M1446,92.8c0,0-129.2,145.3-157.8,160.1c-28.6,14.8-32.8,44.8-138.6,27c-105.8-17.7-140,27.9-168.8-17.7
	c-28.8-45.6-89.7-129.7-215.9-152.1c-126.1-22.4-43.2-81.9-202.4-88.7c-159.2-6.8-74.2,109-182.9,98.8
	C271,110.1,239.2,67.9,239.2,67.9"/>
<circle class="st1" cx="560.9" cy="258.4" r="46.4"/>
<circle class="st1" cx="1015.7" cy="239" r="46.4"/>
<circle class="st1" cx="1298.7" cy="245.2" r="22.3"/>
</svg>
